<svg width="230" height="7" viewBox="0 0 230 7" fill="none" xmlns="http://www.w3.org/2000/svg">
<g clip-path="url(#clip0_349_237)">
<path d="M193.99 6.35807C193.689 6.35807 193.252 6.47767 193.115 6.33122C192.893 6.09203 192.682 6.42153 192.495 6.21651C192.426 6.1384 192.149 6.23359 191.968 6.26044C191.779 6.28729 191.595 6.34099 191.406 6.35319C191.328 6.35807 191.246 6.28973 191.167 6.25312C191.254 6.22383 191.356 6.20919 191.425 6.15549C191.49 6.10668 191.557 6.00905 191.55 5.93827C191.545 5.87481 191.44 5.77474 191.376 5.7723C191.122 5.76742 190.883 5.73569 190.642 5.94559C190.264 6.27509 190.032 6.27753 189.632 5.93338C189.278 5.62829 188.773 5.9285 188.472 5.56483C188.316 5.76742 188.201 6.01393 187.918 6.08471C187.923 6.49475 187.788 6.23115 187.612 6.18722C187.425 6.14329 187.196 5.8504 186.97 6.15305C186.967 6.15793 186.791 6.0481 186.706 5.97732C186.649 5.9285 186.606 5.7967 186.574 5.80159C186.405 5.83087 186.096 5.61609 186.059 5.43792C186.052 5.40375 185.952 5.3891 185.688 5.32076C185.567 5.30856 185.636 5.35981 185.706 5.35981C185.768 5.35981 185.89 5.29391 185.885 5.27439C185.865 5.17432 185.815 5.08157 185.775 4.98638C185.686 5.07425 185.596 5.16212 185.688 5.32076C185.87 5.48917 185.848 5.61121 185.823 5.73324C185.579 5.6649 185.238 6.00417 185.076 5.55019C185.047 5.46721 184.9 5.42571 184.808 5.3647C184.773 5.47209 184.678 5.6405 184.716 5.67467C184.87 5.81623 184.89 5.9285 184.703 6.03345C184.601 6.08959 184.437 6.17258 184.367 6.13108C183.902 5.86749 183.459 5.88945 182.987 6.11644C182.895 6.16037 182.681 6.06274 182.586 5.97C182.457 5.84308 182.382 5.66246 182.292 5.49894C182.054 5.06937 181.668 5.02055 181.33 5.38666C181.302 5.41595 181.3 5.47941 181.307 5.52334C181.32 5.59412 181.35 5.6649 181.374 5.73324C181.282 5.72836 181.133 5.75521 181.111 5.71372C180.83 5.20849 180.486 4.96198 179.917 5.34761C179.859 5.38666 179.722 4.97174 179.64 5.35249C179.63 5.40375 179.787 5.54287 179.877 5.55263C180.143 5.57948 180.414 5.55751 180.685 5.56728C180.738 5.56728 180.79 5.63073 180.842 5.6649C180.787 5.69663 180.73 5.76497 180.683 5.75765C180.103 5.67223 179.484 5.97244 178.939 5.57948C178.436 5.67955 178.001 5.35493 177.513 5.36714C177.138 5.37446 177.095 5.22557 177.314 4.96442C177.441 4.81309 177.468 4.60807 177.277 4.59343C177.06 4.57634 176.662 4.39329 176.618 4.7594C176.56 5.21581 176.379 5.37934 175.928 5.3769C175.754 5.3769 175.585 5.5209 175.404 5.55751C175.284 5.58192 175.05 5.55263 175.038 5.5087C174.886 4.89852 174.306 5.10354 174.09 5.20605C173.679 5.40375 173.378 5.44768 173.023 5.17432C172.98 5.14259 172.891 5.1792 172.824 5.167C172.667 5.14259 172.51 5.10842 172.356 5.07913C172.508 4.97662 172.659 4.87411 172.811 4.76916C172.858 4.73743 172.896 4.69594 172.938 4.65689C172.883 4.6276 172.831 4.58366 172.771 4.5739C172.672 4.55926 172.498 4.53729 172.48 4.5739C172.169 5.22069 171.425 4.77648 170.983 5.14015C170.873 5.23046 170.47 5.09133 170.288 4.95221C169.985 4.72034 169.791 4.72278 169.555 5.01811C169.368 5.24998 169.189 5.311 169.102 4.9156C169.054 4.70082 168.87 4.71058 168.729 4.8497C168.323 5.24998 168.253 5.26707 167.97 4.93269C167.893 4.84238 167.898 4.68373 167.815 4.60319C167.684 4.47383 167.328 4.59831 167.296 4.79112C167.263 4.97906 167.338 5.1792 167.007 5.17676C166.731 5.17432 166.669 5.07669 166.671 4.83262C166.671 4.74719 166.552 4.5861 166.484 4.58366C165.947 4.5617 165.402 4.53485 164.87 4.59099C164.643 4.61539 164.439 4.94001 164.228 4.94001C164.016 4.94001 163.807 4.60807 163.586 4.59343C163.248 4.57146 162.867 4.43722 162.546 4.74719C162.382 4.90584 162.165 4.45431 161.894 4.74719C161.805 4.84482 161.484 4.81065 161.282 4.94977C161.22 4.99371 161.014 4.78136 160.872 4.77892C160.583 4.77648 160.275 4.78624 160.011 4.88631C159.787 4.97174 159.829 4.86435 159.804 4.74719C159.757 4.51044 159.593 4.51288 159.449 4.63004C159.115 4.9034 158.988 4.82041 158.991 4.41525C158.991 4.33715 158.921 4.25905 158.886 4.18094C158.857 4.26881 158.852 4.38352 158.789 4.43478C158.65 4.54949 158.488 4.64712 158.324 4.72278C158.25 4.75696 158.145 4.73011 158.053 4.73255C158.055 4.62027 158.011 4.45919 158.07 4.40305C158.297 4.18583 158.036 4.1004 157.951 4.05403C157.618 3.86609 157.394 3.93443 157.142 4.31274C156.948 4.60563 156.635 4.37132 156.421 4.5202C155.996 4.14433 155.366 4.59587 154.948 4.17118C154.931 4.1541 154.854 4.16386 154.854 4.17118C154.779 4.64956 154.441 4.47139 154.147 4.47139C153.791 4.47139 153.435 4.54705 153.08 4.56414C152.709 4.58122 152.338 4.58122 151.968 4.56414C151.612 4.54705 151.256 4.48115 150.9 4.47139C150.706 4.46651 150.51 4.56414 150.316 4.55926C150.097 4.55193 149.875 4.43722 149.664 4.45675C149.515 4.46895 149.383 4.69106 149.233 4.70326C149.037 4.7179 148.835 4.59343 148.629 4.5739C148.363 4.54949 148.089 4.5739 147.82 4.55926C147.793 4.55926 147.731 4.42258 147.751 4.39573C147.917 4.18094 148.099 3.97836 148.574 3.7709C148.709 3.7709 148.539 3.76602 148.375 3.77578C148.34 3.77578 148.273 3.85145 148.281 3.86609C148.34 4.00521 148.4 4.14921 148.495 4.26393C148.517 4.29078 148.671 4.19559 148.766 4.18582C148.853 4.17606 148.947 4.20047 149.037 4.22244C149.109 4.23952 149.233 4.3103 149.241 4.2981C149.326 4.17118 149.39 4.0345 149.46 3.90026C149.365 3.85633 149.273 3.79775 149.174 3.77578C149.079 3.75382 148.975 3.7709 148.577 3.7709C148.241 3.43896 147.972 3.63178 147.815 3.57076C147.407 3.41456 147.552 3.98813 147.293 3.96128C146.917 3.91979 146.805 4.05403 146.848 4.40061C146.853 4.44454 146.636 4.57878 146.571 4.55193C146.37 4.47139 146.196 4.32495 146.002 4.22488C145.925 4.18582 145.75 4.1663 145.74 4.19071C145.549 4.62516 145.153 4.33227 144.895 4.4421C144.688 4.52997 144.579 4.61783 144.387 4.43966C144.33 4.38596 144.133 4.39573 144.056 4.45186C143.648 4.74719 143.623 4.50556 143.618 4.18338C143.618 4.12237 143.536 4.06135 143.491 4.00033C143.469 4.05647 143.419 4.11749 143.427 4.16874C143.459 4.44698 143.394 4.61051 143.059 4.56658C142.797 4.53485 142.486 4.61051 142.285 4.4958C142.14 4.41281 142.136 4.06379 141.832 4.17606C141.658 4.23952 141.531 4.41769 141.359 4.49336C141.22 4.55437 140.984 4.61295 140.899 4.54461C140.625 4.32007 140.421 4.30542 140.113 4.51044C139.946 4.62027 139.568 4.74231 139.578 4.26637C139.511 4.27369 139.444 4.28101 139.376 4.28834C139.404 4.49824 139.312 4.5739 139.095 4.57146C138.523 4.5617 137.948 4.57146 137.376 4.5617C137.299 4.5617 137.177 4.49092 137.162 4.4299C137.145 4.35668 137.192 4.23952 137.252 4.1785C137.336 4.09064 137.471 4.04914 137.563 3.96616C137.642 3.89538 137.695 3.79287 137.757 3.70256C137.65 3.66595 137.483 3.56588 137.443 3.60249C137.217 3.80507 137.025 3.84412 136.732 3.69036C136.61 3.62446 136.309 3.71965 136.194 3.83924C135.943 4.1004 135.679 4.18827 135.316 4.18338C134.988 4.1785 134.669 4.26149 134.505 4.64712C134.391 4.91316 134.286 4.50068 134.154 4.56902C133.667 4.81553 133.192 4.86679 132.696 4.57634C132.614 4.52753 132.403 4.56658 132.333 4.6398C131.831 5.16944 131.052 4.74475 130.527 5.16212C130.214 4.95465 129.761 5.05228 129.505 4.71058C129.35 4.50556 129.191 4.51288 129.012 4.70082C128.96 4.75451 128.823 4.77648 128.748 4.74963C128.577 4.68861 128.736 4.29078 128.425 4.38596C128.288 4.42746 128.216 4.73499 128.096 4.74719C127.815 4.77648 127.507 4.73743 127.236 4.65444C126.942 4.56414 126.673 4.49092 126.415 4.68861C126.235 4.82529 126.071 5.15723 125.964 4.63492C125.954 4.5861 125.663 4.56658 125.504 4.5739C124.621 4.61539 123.762 4.4958 122.924 4.21755C122.827 4.18583 122.688 4.23464 122.583 4.28101C122.412 4.35668 122.257 4.46895 122.093 4.55682C121.678 4.77892 121.334 4.82041 120.633 4.7716C120.436 4.75695 120.172 4.70814 120.048 4.80577C119.769 5.02788 119.762 4.92292 119.732 4.66665C119.727 4.62271 119.436 4.53729 119.396 4.58122C119.016 4.98394 118.396 4.54461 118.035 4.96686C117.602 4.87411 117.17 4.7838 116.739 4.68861C116.622 4.66177 116.483 4.56902 116.398 4.60563C116.199 4.69594 116.028 4.84482 115.844 4.9693C115.664 4.6935 115.485 4.95221 115.304 4.96442C115.07 4.9815 114.796 5.04252 114.602 4.95465C114.097 4.72523 113.577 4.80577 113.062 4.76428C112.582 4.72523 112.097 4.67397 111.634 4.55437C111.428 4.50068 111.293 4.47139 111.082 4.55437C110.885 4.63248 110.594 4.6276 110.631 4.25661C110.502 4.29566 110.373 4.33471 110.151 4.31518C110.089 4.29566 110.121 4.33471 110.154 4.37376L110.243 4.28589C110.203 4.25417 110.166 4.22 110.121 4.19803C110.114 4.19315 110.082 4.23708 110.151 4.31762C110.094 4.73011 109.711 4.62271 109.666 4.45919C109.532 3.99057 109.36 4.13457 109.156 4.35912C108.955 4.57634 108.738 4.65689 108.469 4.51776C108.069 4.3103 107.688 4.23708 107.305 4.56414C107.275 4.58854 107.054 4.48603 107.054 4.4421C107.044 3.87341 106.78 3.56588 106.278 3.58785C106.188 3.59273 106.101 3.6391 106.011 3.66595C106.071 3.73429 106.133 3.80263 106.186 3.87341C106.26 3.97348 106.327 4.07599 106.397 4.1785C106.138 4.20291 105.688 4.16142 105.653 4.25905C105.544 4.57146 105.494 4.53973 105.243 4.38841C104.957 4.21511 104.621 4.04426 104.337 4.48359C104.27 4.58854 103.902 4.6398 103.795 4.55926C103.444 4.29566 103.155 4.52509 102.837 4.56902C102.561 4.60807 102.282 4.97174 101.986 4.58366C101.949 4.53729 101.784 4.60075 101.692 4.5739C101.217 4.43478 100.792 4.76916 100.304 4.67153C99.824 4.57634 99.319 4.59343 98.8239 4.58366C98.7095 4.58122 98.5925 4.69594 98.4756 4.69838C98.3811 4.69838 98.2791 4.62027 98.192 4.55926C98.1621 4.53973 98.1497 4.43478 98.1621 4.4299C98.2716 4.37376 98.3885 4.32983 98.5055 4.28345C98.3413 4.05403 98.1845 3.81728 98.0029 3.60005C97.9755 3.56588 97.784 3.60005 97.7467 3.65131C97.6422 3.80019 97.5377 3.97104 97.5078 4.14433C97.463 4.41281 97.4183 4.34935 97.2292 4.23708C97.0799 4.14677 96.8361 4.15166 96.6545 4.19315C96.5201 4.22488 96.4156 4.38352 96.2962 4.48603C96.642 4.86679 96.3609 4.84482 96.1295 4.69594C95.9007 4.54705 95.7265 4.53241 95.5001 4.64712C95.3956 4.70082 95.2712 4.72034 95.1568 4.75695C95.1966 4.66421 95.2364 4.56902 95.2762 4.47627C95.1219 4.4421 94.9254 4.33471 94.8209 4.39085C94.5821 4.5202 94.3855 4.72034 94.1691 4.38108C93.8108 4.56658 93.3431 4.50312 93.0595 4.85947C92.9351 5.01567 92.7659 5.0352 92.649 4.86679C92.4698 4.61051 92.2982 4.59343 92.0395 4.76428C91.813 4.9156 91.6314 4.99859 91.2782 4.81309C90.91 4.62271 90.3551 4.79845 89.8874 4.7594C89.6312 4.73743 89.4122 4.55682 89.1709 4.86923C89.0739 4.99371 88.7007 5.03276 88.529 4.95221C87.9568 4.69106 87.4393 4.70814 86.8597 4.94733C86.6333 5.04008 86.1755 5.14503 86.1233 4.62271C85.8695 4.79845 85.668 4.74719 85.3868 4.60075C85.1978 4.50312 84.8246 4.7716 84.6106 4.68861C84.337 4.58122 84.1628 4.64712 83.9041 4.68373C83.3294 4.76672 82.7547 5.01811 82.1377 4.78868C81.9237 4.71058 81.7346 4.75695 81.6749 4.44942C81.6376 4.26393 81.4137 4.11504 81.1947 4.35179C81.1027 4.25661 80.9335 4.1663 80.9286 4.06867C80.9111 3.71477 80.8241 3.78066 80.6126 3.95884C80.5355 4.02474 80.3539 3.9686 80.222 3.98569C80.1872 3.99057 80.1648 4.06623 80.1349 4.11016C80.1921 4.13213 80.2494 4.15654 80.3091 4.1785C80.3663 4.20291 80.4235 4.22488 80.4807 4.24928C80.2593 4.3762 80.0976 4.55437 79.9508 4.76184C79.916 4.81309 79.6224 4.75695 79.5105 4.67153C79.0801 4.34203 79.0875 4.32739 78.8139 4.55682C78.7118 4.64224 78.6074 4.73255 78.5302 4.8375C78.3387 5.09866 78.2765 4.82529 78.172 4.75695C78.1272 4.72523 78.0774 4.64468 78.0874 4.59831C78.157 4.26149 77.5152 4.48115 77.6669 4.08087C77.6669 4.07843 77.5077 3.99057 77.4206 3.98569C77.1519 3.97348 76.8808 3.9686 76.6121 3.99057C76.5573 3.99545 76.4628 4.12969 76.4727 4.19071C76.5499 4.67153 76.0921 4.64468 75.8582 4.75207C75.6393 4.85458 75.2562 4.87655 75.077 4.75207C74.7661 4.53729 74.5695 4.77648 74.3257 4.79357C74.2287 4.80089 74.1341 4.87655 74.0396 4.87167C73.5818 4.8497 73.0718 4.67397 72.6812 4.81797C72.3503 4.94001 72.0816 4.65444 71.7557 4.87899C71.5766 5.00347 71.1736 4.8375 70.88 4.76916C70.7332 4.73499 70.6038 4.62516 70.4695 4.54949C70.3973 4.508 70.3003 4.41037 70.2605 4.4299C70.1063 4.50312 69.9694 4.61539 69.8276 4.71302C69.6261 4.40793 69.5465 4.85702 69.3574 4.78868C69.228 4.74231 69.1509 4.51532 68.8897 4.72523C68.6633 4.90584 68.3 4.73499 67.9816 4.61295C67.7652 4.52997 67.4417 5.00103 67.1258 4.64224C66.4043 4.64712 65.6828 4.64224 64.9613 4.66177C64.7747 4.66665 64.5608 4.81797 64.4115 4.76428C63.3392 4.3762 62.2371 4.64468 61.1524 4.59099C60.6772 4.56658 60.1647 4.44454 59.7119 4.76672C59.6347 4.82285 59.4382 4.7838 59.3387 4.72523C59.1994 4.64224 59.0053 4.38596 58.9879 4.40061C58.3933 4.84726 57.6842 4.39329 57.0672 4.64956C56.8657 4.73255 56.5398 4.84726 56.4303 4.75695C55.9552 4.37132 55.3083 4.80333 54.853 4.38841C54.7908 4.33227 54.5644 4.36156 54.4823 4.4299C54.0445 4.79845 53.42 4.34935 53.002 4.7716C52.9846 4.78868 52.8926 4.73011 52.8329 4.71058C52.6264 4.6398 52.4074 4.59343 52.2159 4.49336C51.9571 4.35668 51.7556 4.72767 51.5441 4.56902C51.3327 4.40793 51.1809 4.55437 50.9968 4.56414C50.2902 4.60075 49.5812 4.55437 48.8746 4.5861C48.295 4.61295 47.7178 4.50312 47.1232 4.74231C46.7873 4.87899 46.2872 4.89364 45.8742 4.652C45.7225 4.5617 45.4911 4.56658 45.2995 4.5861C44.3218 4.67885 43.3167 4.364 42.3589 4.7594C41.8115 4.37864 41.1945 4.63004 40.6124 4.59587C40.1695 4.56902 39.7118 4.49092 39.2689 4.7594C39.0848 4.87167 38.6992 4.8375 38.5026 4.72034C38.0498 4.44698 37.5871 4.66665 37.1418 4.58366C36.4153 5.06693 35.868 4.69838 35.3381 4.22488C34.9698 3.89538 34.945 3.88562 34.6414 4.24684C34.4001 4.53485 34.1563 4.83994 33.9996 5.17432C33.8677 5.45988 33.7184 5.4428 33.5841 5.26707C33.2433 4.82529 32.6661 4.86923 32.2357 4.60319C32.0466 4.48603 31.6311 4.48847 31.4619 4.61539C31.1435 4.85702 30.8275 4.75451 30.5116 4.7716C30.2926 4.7838 30.0438 4.86191 29.8647 4.62027C29.8249 4.56658 29.6731 4.56414 29.5861 4.58366C29.3746 4.63248 29.1706 4.71302 28.9616 4.77648C28.7825 4.83018 28.6456 4.4421 28.3944 4.75695C28.3222 4.84726 27.9242 4.73987 27.6629 4.66909C27.1131 4.5202 26.5061 4.4299 25.9587 4.77648C25.7174 4.93025 25.4761 4.84482 25.2149 4.79601C24.9835 4.75451 24.7222 4.45675 24.476 4.77648C23.7221 4.83018 22.9857 4.73743 22.2692 4.49336C22.217 4.47627 22.1348 4.40549 22.1299 4.41037C21.8413 4.74963 21.4233 4.46895 21.1024 4.62027C21.0153 4.66177 20.9506 4.74963 20.8884 4.82774C20.7939 4.94245 20.7441 4.93513 20.5924 4.85702C20.162 4.6398 19.6121 4.93269 19.1942 4.57634C18.2413 4.97418 17.1765 4.79601 16.1988 5.14259C15.8579 5.26463 15.3902 5.04008 14.9797 4.97418C14.7035 4.93025 13.8154 4.98638 13.5666 5.0596C13.1411 5.18408 12.7356 5.35981 12.2604 5.18408C11.8922 5.04984 11.5788 5.32076 11.2976 5.51114C10.2154 6.24092 9.82728 6.3361 8.21264 5.99196C7.86185 5.9163 7.6056 5.39398 7.16276 5.75033C6.93885 5.32076 6.44873 5.36225 6.0855 5.18652C5.83423 5.06449 5.80935 4.64956 5.36153 4.75207C5.08288 4.81553 4.74453 4.5739 4.44101 4.59099C3.55284 4.6398 2.64973 4.41281 1.76653 4.71058C1.68692 4.73743 1.42818 4.55193 1.43316 4.47627C1.47047 3.88318 1.01519 3.87585 0.62957 3.78555C0.505175 3.75626 0.365854 3.7709 0.251411 3.72453C0.00759842 3.62446 -0.0521108 3.37062 0.11209 3.18269C0.199166 3.08262 0.288729 2.97767 0.398196 2.90444C0.744012 2.67502 0.455418 2.5481 0.313608 2.41386C0.238972 2.34308 0.124529 2.31623 0.0275015 2.26986C0.124529 2.17955 0.224044 2.0087 0.316096 2.01358C0.612155 2.02578 0.781331 1.97453 0.890798 1.65967C0.920652 1.57181 1.36598 1.67676 1.53018 1.56449C1.97303 1.26184 2.493 1.09343 2.92091 0.788336C3.14482 0.627248 3.21697 0.76881 3.37619 0.788336C3.6822 0.824947 3.97329 0.939661 4.32657 0.832269C4.69477 0.719995 5.13015 0.827387 5.5307 0.800539C6.0457 0.766369 6.56318 0.90549 7.07817 0.632129C7.2772 0.527178 7.63297 0.544263 7.934 0.712673C8.09074 0.800539 8.38431 0.641892 8.61568 0.610163C8.74754 0.593078 8.91174 0.654096 9.01623 0.597959C9.6581 0.251376 10.3472 0.168391 11.0638 0.168391C11.2031 0.168391 11.3797 0.0219479 11.4743 0.0707624C12.0415 0.353887 12.7406 0.16351 13.2755 0.610163C13.7258 0.983594 14.2557 1.2594 14.8478 0.827387C15.1936 0.575993 15.4897 1.06414 15.9052 0.844472C16.1789 0.700469 16.6739 0.688266 17.0421 0.942101C17.1367 1.008 17.3208 1.04217 17.4128 0.995797C18.1567 0.617485 18.9802 1.36435 19.7017 0.827387C20.0873 1.14956 20.4655 1.03241 20.8411 0.807861C21.3437 1.22767 21.5502 0.73708 21.8662 0.510093C22.0851 0.351446 22.2966 0.158628 22.6548 0.461278C22.9359 0.698029 23.4186 0.695588 23.8117 0.810302C24.7173 1.0739 24.9486 1.07634 25.9786 0.829828C26.0732 0.807861 26.1752 0.820065 26.2747 0.807861C26.8867 0.739521 27.5336 0.983594 28.1132 0.610163C28.4615 0.983594 28.8098 0.590637 29.1606 0.6004C29.3049 0.605281 29.4492 0.480804 29.601 0.456397C29.9493 0.405142 30.3026 0.302631 30.6285 0.573552C30.7653 0.688266 30.9768 0.815184 31.131 0.790776C31.5216 0.729758 31.8923 1.32041 32.278 0.812743C32.783 1.21058 33.3726 0.915253 33.9175 1.00312C34.4474 1.08854 34.9475 0.920135 35.4525 0.807861C35.8232 0.724877 36.1939 0.651655 36.5646 0.56623C36.7462 0.524737 36.9253 0.419786 37.1045 0.419786C37.806 0.410023 37.8135 0.429549 38.2265 0.119577C38.3832 0.00242211 38.5823 -0.0561553 38.632 0.119577C38.8261 0.844472 39.3659 0.644333 39.8113 0.541822C40.6049 0.361209 41.406 0.356327 41.9931 0.615044C42.5579 0.863998 43.1251 1.04705 43.7197 0.693147C43.7969 0.646774 43.9038 0.597959 43.9859 0.612603C44.2646 0.661418 44.6427 0.881083 44.792 0.773691C45.0831 0.56867 45.3568 0.595518 45.6404 0.612603C46.4564 0.658977 47.2724 0.729758 48.0835 0.810302C48.2626 0.827387 48.4442 0.917694 48.6035 1.00556C48.8274 1.1276 49.0239 1.35947 49.2627 1.0202C49.2851 0.988475 49.4618 1.01288 49.524 1.0617C49.8126 1.29601 50.0763 1.26184 50.2853 0.986034C50.4918 0.715114 50.8326 0.719995 51.0068 0.822506C51.5143 1.11539 52.0417 0.944542 52.5542 0.998238C52.6537 1.008 52.7756 1.03485 52.8528 0.993357C53.1016 0.859117 53.3379 0.700469 53.5743 0.544263C53.9027 0.324598 54.0395 0.705351 54.2783 0.751725C54.5644 0.807861 54.863 0.822506 55.0471 1.10075C55.0645 1.1276 55.1839 1.08854 55.2536 1.08122C55.8606 1.01776 56.4328 0.754165 57.0573 0.80298C57.1842 0.812743 57.4056 0.827387 57.4155 0.876202C57.53 1.41316 57.7415 1.22278 57.9952 0.981153C58.0823 0.898168 58.2216 0.800539 58.3211 0.812743C58.9356 0.895728 59.575 0.60284 60.1771 0.966509C60.3239 1.05682 60.5677 0.998238 60.7667 1.00068C61.2718 1.00312 61.7818 1.03729 62.2819 0.990916C62.7272 0.949423 63.2223 1.20326 63.6203 0.812743C63.991 1.26428 64.5956 0.761488 64.9961 1.13248C65.0534 1.18373 65.22 1.13248 65.332 1.11295C65.4863 1.08366 65.6355 1.02265 65.7898 1.00312C66.1032 0.961627 66.3719 1.3375 66.7526 1.02265C66.9591 0.851794 67.4094 1.13248 67.6656 0.812743C67.9194 0.922575 68.208 0.990916 68.417 1.15689C68.621 1.31553 68.7429 1.43269 68.932 1.16665C68.9817 1.09343 69.1434 1.00068 69.1559 1.01044C69.5813 1.44733 69.9968 0.998238 70.4123 1.01044C70.4794 1.01044 70.5516 1.10563 70.6088 1.16665C70.9198 1.49615 71.4845 1.61574 71.8926 1.43025C72.2483 1.26916 72.6091 1.18861 73.0096 1.18861C73.3529 1.18861 73.6938 1.05926 74.0396 1.008C74.2735 0.973831 74.6068 1.24475 74.6218 1.47662C74.6218 1.51323 74.4899 1.55228 74.4327 1.6011C74.3829 1.64259 74.3506 1.70361 74.3108 1.75486C74.5645 1.72313 74.8904 2.01114 75.0621 1.59866C75.1169 1.57669 75.1741 1.55472 75.2288 1.53276C75.1741 1.48882 75.1169 1.44489 75.0621 1.39852C75.2338 0.983594 75.6095 1.16909 75.801 1.2594C76.4528 1.56693 77.1171 1.30333 77.7664 1.39852C78.0127 1.01044 78.264 1.28136 78.5078 1.39852C78.9258 1.6011 79.3288 1.73046 79.7792 1.44733C80.0155 1.29845 80.1299 1.42536 80.1299 1.69384C80.1299 1.79391 80.227 1.89398 80.2792 1.99405C80.3613 1.92327 80.4459 1.85493 80.5255 1.77927C80.5877 1.72069 80.6424 1.60598 80.7022 1.60598C80.9634 1.60354 81.2992 1.54008 81.4734 1.66944C81.7496 1.8769 81.8516 1.71825 82.063 1.61818C82.1849 1.5596 82.573 1.42292 82.5581 1.85981C82.5581 1.87446 82.7049 1.92571 82.7348 1.90131C82.889 1.77195 83.0109 1.60842 83.1751 1.49371C83.2572 1.43513 83.4562 1.40828 83.506 1.45954C83.7349 1.69384 84.0086 1.57181 84.2623 1.59622C84.842 1.64991 85.4366 1.48394 86.0063 1.77927C86.1656 1.86225 86.4268 1.83053 86.6532 1.66212C87.1682 1.27892 87.6433 1.29845 88.1534 1.63771C88.2081 1.67432 88.2504 1.73046 88.2977 1.77683C88.4867 1.3253 88.7977 1.7988 89.0838 1.68164C89.5142 1.50591 90.0516 1.43269 90.4397 1.89154C90.5741 2.05019 90.7059 2.01358 90.8602 1.88666C91.0045 1.76951 91.1712 1.66212 91.3453 1.60842C91.4249 1.58401 91.5941 1.667 91.6439 1.74998C91.7185 1.87446 91.726 2.03799 91.7608 2.18687C91.8678 2.12341 91.9822 1.99649 92.0817 2.00626C92.2609 2.02578 92.44 2.11121 92.6042 2.19419C92.8007 2.2967 92.8754 1.87934 93.0819 2.10145L94.1293 2.04287C94.3233 2.02578 94.5199 2.0087 94.7139 1.98917C95.0971 1.955 95.51 2.11121 95.8484 1.79636C95.8758 1.76951 95.9977 1.78903 96.03 1.82564C96.1171 1.92327 96.1693 2.12341 96.2514 2.13073C96.3908 2.14538 96.5375 2.0209 96.6893 1.99894C96.8112 1.97941 96.953 2.00138 97.0675 2.04775C97.361 2.1649 97.8362 2.27718 98.0377 2.16002C98.192 2.06972 98.2343 2.05751 98.4134 2.1405C98.6348 2.24301 99.0155 2.29182 99.1822 2.16979C99.6175 1.85981 99.8763 2.01358 100.2 2.31135C100.294 2.39921 100.56 2.35284 100.73 2.30403C100.906 2.25277 101.051 2.10877 101.222 2.04043C101.337 1.99405 101.486 1.97209 101.605 1.99894C102.583 2.22348 102.588 2.24789 103.389 1.98185C103.65 1.89398 103.867 1.66944 104.123 1.96477C104.387 1.77195 104.748 2.11609 105.009 1.80612C105.049 1.75974 105.345 1.81344 105.36 1.8647C105.534 2.48708 105.832 2.15026 106.151 2.01114C106.268 1.95988 106.626 1.8647 106.606 2.17711C106.581 2.56762 106.738 2.63108 107.071 2.59935C107.143 2.59203 107.216 2.72627 107.303 2.75556C107.666 2.88004 107.85 2.77753 107.823 2.37481C107.785 1.84273 108.069 2.22348 108.228 2.17467C109.171 1.88666 110.131 2.03311 111.082 1.99161C111.139 1.98917 111.199 1.95012 111.251 1.91839C111.43 1.80856 111.522 1.4693 111.803 1.64015C111.945 1.72557 111.972 1.97697 112.104 2.099C112.293 2.27474 112.532 2.2723 112.714 2.06972C112.915 1.84273 113.075 1.69384 113.147 2.14294C113.194 2.13073 113.281 2.12585 113.284 2.10633C113.313 1.91351 113.251 1.75242 113.59 1.9428C113.928 2.13318 114.388 2.17955 114.794 2.17711C115.162 2.17467 115.552 2.07216 115.888 1.91839C116.261 1.74998 116.535 1.72801 116.866 2.00626C117.207 2.29182 117.677 2.29426 118.015 2.01602C118.214 1.85249 118.391 1.78415 118.637 1.79636C118.941 1.811 119.257 1.85493 119.543 1.78415C119.802 1.72069 119.936 2.0087 120.227 1.89642C120.396 1.83297 120.685 2.10389 120.934 2.18443C120.991 2.20396 121.103 2.06483 121.19 1.99894C121.257 2.08436 121.337 2.16246 121.389 2.25521C121.496 2.45047 121.702 2.46755 121.757 2.30891C121.829 2.099 121.867 1.96232 122.13 1.99649C122.466 2.03799 122.795 2.02822 123.019 1.70361C123.038 1.67432 123.183 1.68164 123.223 1.71825C123.571 2.05019 124.066 1.93792 124.474 2.10633C124.663 2.18443 125.004 2.03555 125.215 1.89887C125.444 1.74998 125.566 1.80124 125.71 1.96721C125.845 2.12097 126.004 2.17467 126.216 2.21616C126.472 2.26742 126.648 1.90863 126.885 2.13073C127.196 2.41874 127.32 1.97453 127.571 1.94524C127.81 1.91839 128.007 1.58401 128.076 2.0868C128.076 2.09656 128.208 2.10145 128.275 2.0868C128.783 1.97941 129.283 1.86225 129.778 2.16979C129.9 2.24545 130.104 2.2064 130.271 2.19175C130.671 2.15758 131.109 1.98429 131.462 2.09168C131.913 2.2308 132.236 1.83053 132.637 1.97941C132.876 1.69629 133.209 2.10389 133.53 1.83053C133.724 1.66456 134.209 1.7451 134.535 1.98429C134.642 2.06239 134.863 2.0087 135.03 1.99405C135.314 1.96965 135.642 2.11365 135.856 1.7988C136.035 2.07704 136.321 1.98673 136.58 1.99649C136.714 2.00138 136.861 2.03066 136.981 1.99161C137.334 1.8769 137.657 1.44489 138.011 1.62795C138.404 1.83053 138.769 1.77927 139.153 1.79636C139.556 1.81344 139.961 1.78659 140.362 1.80856C140.474 1.81344 140.576 1.94768 140.693 1.96721C140.752 1.97697 140.834 1.86714 140.904 1.811C140.951 1.91839 140.989 2.03066 141.051 2.12829C141.078 2.16979 141.163 2.19907 141.217 2.19663C141.476 2.18199 141.827 2.25033 141.976 2.11121C142.372 1.74998 142.648 2.31135 142.952 2.16735C143.208 2.04531 143.379 1.80612 143.735 1.97697C144.044 2.12585 144.464 1.84273 144.76 2.18931C144.803 2.23813 144.952 2.19907 145.054 2.19907C145.507 2.2064 145.944 2.19907 146.39 2.37725C146.723 2.51149 146.994 1.89154 147.425 2.16002C147.902 1.84029 148.599 2.12341 149.017 1.61086C149.029 1.59377 149.283 1.69384 149.296 1.76218C149.338 2.00138 149.368 1.91351 149.569 1.87446C150.099 1.77195 150.644 1.70605 151.201 1.94036C151.515 2.07216 151.923 1.97453 152.284 2.0087C152.376 2.01846 152.458 2.13317 152.545 2.24301C152.545 2.25765 152.545 2.22836 152.545 2.19907C152.493 2.2186 152.433 2.22836 152.391 2.26009C152.378 2.26986 152.41 2.3382 152.423 2.37969C152.463 2.34796 152.503 2.31867 152.542 2.24301C152.816 2.06728 152.945 1.4693 153.411 1.94768C153.458 1.99649 153.62 2.0087 153.674 1.96965C154.184 1.57669 154.647 1.87446 155.12 2.04531C155.296 2.10877 155.481 2.17955 155.662 2.18931C155.889 2.20152 156.167 2.2308 156.334 2.12097C156.622 1.93059 156.757 2.30647 157.018 2.21128C157.227 2.13806 157.488 2.22104 157.72 2.18931C157.966 2.15514 158.2 2.03555 158.446 2.00626C158.712 1.97209 159.066 1.89398 159.237 2.0209C159.548 2.25277 159.757 1.91351 159.996 2.00382C160.227 2.09168 160.439 2.23324 160.67 2.32355C160.77 2.3626 160.931 2.36993 161.006 2.31379C161.344 2.06239 161.72 2.25765 162.073 2.2064C162.123 2.19907 162.23 2.30891 162.245 2.37969C162.312 2.68966 162.499 2.66769 162.648 2.48952C162.867 2.22836 163.128 2.16735 163.439 2.19663C163.693 2.22104 163.937 2.1649 164.188 2.3626C164.303 2.45291 164.651 2.19907 164.89 2.21128C165.268 2.2308 165.778 2.2186 165.979 2.44315C166.283 2.77509 166.494 2.34064 166.716 2.50661C166.945 2.67746 167.179 2.84099 167.425 2.98255C167.48 3.01428 167.611 2.9557 167.686 2.90688C167.721 2.88492 167.733 2.76776 167.706 2.72871C167.634 2.62132 167.527 2.53834 167.45 2.43338C167.407 2.37725 167.402 2.29426 167.38 2.22592C167.445 2.21616 167.532 2.17711 167.567 2.20396C167.815 2.38945 168.029 2.50417 168.36 2.2967C168.455 2.23813 168.751 2.57006 168.955 2.57251C169.166 2.57495 169.326 2.26742 169.622 2.55542C169.851 2.77753 170.229 2.85319 170.604 2.97767C170.577 3.05821 170.463 3.18025 170.348 3.29984C170.403 3.32913 170.485 3.39747 170.507 3.38283C170.649 3.2852 170.779 3.17048 170.913 3.06065C170.856 3.03868 170.798 3.01428 170.604 2.97767C170.629 2.63352 170.886 2.80437 171.085 2.83854C171.234 2.86539 171.383 3.00207 171.517 2.98255C171.938 2.92397 172.219 2.47488 172.794 2.758C173.194 2.9557 173.779 2.79705 174.281 2.79461C174.958 2.79461 175.64 2.7458 176.249 3.13143C176.319 3.17536 176.478 3.20709 176.511 3.17048C176.702 2.96058 176.866 2.91421 177.085 3.14364C177.128 3.18757 177.304 3.10214 177.419 3.0875C177.707 3.05089 177.993 3.01428 178.282 2.99231C178.59 2.9679 178.782 3.10702 178.832 3.41456C178.869 3.6391 178.969 3.57564 179.063 3.45605C179.267 3.19001 179.421 3.12899 179.491 3.53659C179.538 3.52195 179.586 3.50242 179.633 3.49754C179.703 3.49022 179.775 3.49022 179.844 3.48778V3.78311C179.79 3.80507 179.732 3.82704 179.678 3.849C179.732 3.89294 179.79 3.93687 179.919 3.94175C179.904 4.00765 179.852 4.04182 179.847 4.08087C179.815 4.35668 180.004 4.48115 180.223 4.57146C180.267 4.59099 180.357 4.55926 180.397 4.52265C180.434 4.48603 180.469 4.38108 180.446 4.35424C180.31 4.20047 180.158 4.06135 179.919 3.94175C179.844 3.9149 179.844 3.849 179.844 3.78311C180.088 3.48534 180.427 3.69036 180.718 3.6391C181.347 3.52683 181.962 3.31205 182.623 3.3755C182.962 3.40723 182.865 3.60737 182.88 3.78311C182.688 3.78311 182.494 3.79287 182.302 3.78311C181.984 3.76358 181.75 3.85389 181.666 4.22732C181.666 4.24196 181.666 4.21267 181.666 4.18338C181.613 4.20291 181.554 4.21267 181.511 4.2444C181.499 4.25417 181.531 4.32251 181.544 4.364C181.583 4.33227 181.623 4.30298 181.663 4.22732C182.083 4.43722 182.474 4.87655 183.016 4.38596C183.079 4.32983 183.188 4.32007 183.275 4.29078C183.166 4.2444 183.016 4.22732 182.957 4.14677C182.89 4.05891 182.9 3.91002 182.877 3.79043C183.21 3.85877 182.964 3.26323 183.375 3.38527C183.581 3.44629 183.85 3.36574 184.022 3.46093C184.116 3.51463 184.051 3.80995 184.096 3.98813C184.131 4.12725 184.226 4.25417 184.333 4.45675C184.265 4.4421 184.231 4.38841 184.198 4.39085C184.111 4.39329 184.024 4.42014 183.937 4.43722C183.949 4.48115 183.959 4.5617 183.972 4.5617C184.081 4.5617 184.188 4.54461 184.333 4.45675C184.392 4.38596 184.502 4.36156 184.594 4.39085C184.78 4.45186 184.805 4.82529 185.081 4.66909C185.129 4.64224 185.007 4.33471 184.967 4.1541C184.957 4.11016 184.972 4.06135 184.974 4.01497C185.066 4.0223 185.196 3.99301 185.238 4.04182C185.315 4.12725 185.343 4.25905 185.39 4.37132C185.437 4.26881 185.462 4.14433 185.537 4.06623C185.708 3.88806 185.858 3.60981 186.174 3.92711C186.261 4.01497 186.485 3.97836 186.646 3.98569C186.935 4.00033 187.243 3.92223 187.48 4.17606C187.485 4.18338 187.644 4.05403 187.731 3.98569C187.967 4.24928 188.443 4.24196 188.547 4.66665C188.552 4.68373 188.674 4.67397 188.741 4.67641C188.736 4.2981 188.898 4.29322 189.159 4.49336C189.206 4.52997 189.298 4.59099 189.318 4.57634C189.806 4.19803 190.281 4.48603 190.769 4.57634C191.062 4.6276 191.361 4.60807 191.56 4.30786C191.664 4.14921 191.811 4.13945 191.973 4.27613C192.291 4.54217 192.53 5.12306 193.085 4.58854C193.157 4.72034 193.202 4.87655 193.306 4.97174C193.411 5.06693 193.575 5.1011 193.712 5.16212C193.739 5.00835 193.779 4.85702 193.789 4.70326C193.791 4.65689 193.702 4.61051 193.672 4.55682C193.652 4.5202 193.665 4.46651 193.662 4.41769L194.386 4.69838C194.297 4.72523 194.157 4.72767 194.127 4.7838C194 5.02299 193.759 5.33541 193.831 5.51358C193.936 5.76986 193.727 6.07495 193.998 6.2702C194.013 6.28241 193.998 6.33366 193.998 6.36539L193.99 6.35807ZM119.026 4.17362H118.936C118.956 4.22488 118.966 4.28345 118.998 4.32495C119.008 4.33715 119.078 4.30542 119.12 4.29322C119.088 4.25417 119.058 4.21511 118.752 4.06135C118.784 4.1004 118.817 4.13701 118.846 4.17606C118.876 4.14677 118.906 4.11749 118.936 4.0882C118.896 4.05647 118.859 4.0223 118.814 4.00033C118.807 3.99545 118.774 4.03938 119.026 4.17606V4.17362ZM138.043 2.78485H137.953C137.973 2.8361 137.983 2.89468 138.016 2.93617C138.026 2.94838 138.095 2.91665 138.137 2.90444C138.105 2.86539 138.075 2.82634 137.767 2.67258C137.799 2.71163 137.831 2.75068 137.861 2.78729C137.891 2.758 137.921 2.72871 137.951 2.69942C137.911 2.66769 137.874 2.63352 137.829 2.61156C137.822 2.60668 137.789 2.65061 138.04 2.78729L138.043 2.78485ZM191.361 5.167C191.309 5.1011 191.259 5.0352 191.209 4.9693C191.124 5.0352 191.042 5.1011 191.037 5.40375C190.945 5.27927 190.893 5.17188 190.863 5.17676C190.756 5.19629 190.657 5.25486 190.552 5.2988C190.609 5.38666 190.652 5.51846 190.731 5.55019C190.791 5.5746 190.906 5.47209 190.958 5.167H191.453H191.363C191.383 5.21825 191.393 5.27683 191.425 5.31832C191.435 5.33053 191.505 5.2988 191.547 5.28659C191.515 5.24754 191.485 5.20849 191.363 5.16944L191.361 5.167ZM175.986 3.86609V3.77822C175.933 3.79775 175.874 3.80751 175.831 3.83924C175.819 3.849 175.851 3.91735 175.864 3.95884C175.904 3.92955 175.943 3.89782 176.259 3.29496C176.152 3.44873 176.065 3.56588 175.991 3.69036C175.986 3.70012 176.045 3.77334 176.08 3.77578C176.239 3.79287 176.406 3.79287 176.386 3.56344C176.381 3.50974 176.339 3.46093 175.986 3.86853V3.86609ZM148.472 3.27055V3.18269C148.42 3.20221 148.36 3.21198 148.318 3.24371C148.305 3.25347 148.338 3.32181 148.35 3.3633C148.39 3.33157 148.43 3.30228 148.611 2.74824C148.562 2.86539 148.509 2.97523 148.475 3.09238C148.47 3.11191 148.532 3.1534 148.564 3.18269C148.659 3.07529 148.753 2.9679 148.848 2.86051C148.796 2.8361 148.743 2.8117 148.47 3.27299L148.472 3.27055ZM77.9083 3.16316C77.856 3.09482 77.8162 3.03868 77.7739 2.98499C77.7391 3.03136 77.6694 3.07774 77.6719 3.12167C77.6769 3.20465 77.7217 3.2852 77.749 3.36574C77.7963 3.30716 77.8436 3.24615 78.6173 2.62864C78.4506 2.69698 78.3387 2.7458 78.2242 2.78729C78.1073 2.82634 77.9879 2.85563 77.8684 2.8898C78.0003 2.92153 78.1347 2.95326 78.2665 2.98743C78.3262 3.00451 78.4083 3.01184 78.4332 3.05333C78.4954 3.1534 78.5302 3.27055 78.5775 3.38039C78.6695 3.22174 78.8114 3.07285 78.8387 2.90444C78.8537 2.81414 78.6745 2.69454 77.9083 3.16316ZM166.258 3.24859C166.313 3.2193 166.37 3.19001 166.425 3.16072C166.385 3.10214 166.335 2.98499 166.308 2.98987C165.845 3.07774 165.3 3.68548 165.265 4.14433C165.26 4.20291 165.295 4.26149 165.313 4.32007C165.385 4.28345 165.479 4.26393 165.522 4.20535C165.609 4.08087 165.651 3.92467 165.746 3.80507C165.81 3.72453 165.93 3.68548 166.024 3.6269C166.057 3.74893 166.368 3.75626 166.171 3.9808C166.144 4.01253 166.186 4.10528 166.196 4.16874C166.285 4.13945 166.445 4.11748 166.45 4.08087C166.465 3.92955 166.45 3.76846 166.415 3.61714C166.385 3.48778 166.31 3.36818 166.258 3.24371V3.24859ZM175.515 4.00521C175.304 3.89538 175.185 3.78066 175.075 3.79043C174.931 3.80507 174.777 3.89538 174.662 3.99301C174.56 4.08087 174.446 4.22 174.446 4.33715C174.446 4.48603 174.893 4.66421 175.033 4.5617C175.197 4.43966 175.309 4.24928 175.515 4.00521ZM130.321 2.99231C129.92 2.96058 129.726 3.0997 129.671 3.38039C129.661 3.4292 129.815 3.55612 129.908 3.57076C130.206 3.61714 130.403 3.46337 130.457 3.18269C130.47 3.11435 130.343 3.0216 130.321 2.99231ZM184.701 4.94733C184.651 4.87167 184.604 4.77404 184.584 4.77892C184.29 4.85702 183.997 4.94245 183.708 5.04252C183.678 5.05228 183.653 5.17432 183.678 5.21093C183.723 5.27683 183.827 5.37446 183.867 5.35737C184.099 5.27195 184.295 5.08645 184.579 5.15723C184.601 5.16212 184.661 5.01323 184.698 4.94733H184.701ZM112.256 2.38701C111.923 2.48464 111.743 2.82878 111.898 3.11191C111.928 3.1656 112.139 3.19001 112.147 3.17536C112.251 2.93861 112.336 2.69454 112.418 2.44803C112.418 2.44559 112.311 2.40654 112.256 2.38701ZM186.554 4.77404C186.465 4.77404 186.405 4.7716 186.402 4.77404C186.375 5.01323 186.355 5.25486 186.333 5.49649C186.402 5.47453 186.514 5.46965 186.534 5.42571C186.609 5.26218 186.666 5.08889 186.696 4.91316C186.703 4.86679 186.584 4.80333 186.554 4.77648V4.77404ZM183.362 4.55193C183.203 4.74231 183.051 4.92292 182.9 5.10354C182.957 5.1255 183.011 5.15723 183.069 5.16456C183.424 5.20117 183.541 5.07669 183.467 4.73499C183.454 4.67885 183.41 4.63248 183.362 4.55193ZM143.812 3.38039C143.877 3.38039 143.952 3.39747 144.009 3.3755C144.086 3.34622 144.171 3.29984 144.218 3.23638C144.245 3.20221 144.208 3.11923 144.2 3.05821C144.131 3.07529 144.061 3.0997 143.991 3.11191C143.837 3.13875 143.68 3.15096 143.529 3.18757C143.494 3.19489 143.467 3.26567 143.452 3.31449C143.447 3.32913 143.491 3.3755 143.516 3.37794C143.613 3.38527 143.713 3.38039 143.812 3.38039ZM190.08 5.08157C190.005 5.24266 189.948 5.30856 189.95 5.37202C189.958 5.51114 189.853 5.71616 190.099 5.75277C190.177 5.76497 190.266 5.69175 190.348 5.65758C190.274 5.49405 190.196 5.33297 190.08 5.07913V5.08157ZM174.157 4.99126C174.242 4.95954 174.289 4.95221 174.294 4.93513C174.306 4.89364 174.316 4.82774 174.294 4.80577C174.207 4.72034 174.11 4.63736 174.005 4.57634C173.965 4.55437 173.888 4.59343 173.829 4.60319C173.851 4.67153 173.856 4.75451 173.901 4.80089C173.983 4.88387 174.087 4.94001 174.157 4.99126ZM173.727 3.67327C173.637 3.82948 173.545 3.93199 173.567 3.9686C173.62 4.05403 173.724 4.10772 173.806 4.17606C173.859 4.11016 173.963 4.03206 173.951 3.98324C173.928 3.8905 173.836 3.81728 173.727 3.67571V3.67327ZM150.525 2.65061C150.472 2.52857 150.453 2.47244 150.425 2.42118C150.42 2.41386 150.37 2.41386 150.36 2.42362C150.268 2.54322 150.171 2.66281 150.097 2.79217C150.079 2.8239 150.134 2.89712 150.161 2.95082C150.166 2.95814 150.214 2.95814 150.226 2.94838C150.336 2.84343 150.44 2.73603 150.525 2.65061ZM162.994 2.4822C162.919 2.64573 162.847 2.73848 162.847 2.83122C162.847 2.88248 163.009 2.98743 163.029 2.97523C163.113 2.91665 163.193 2.82878 163.23 2.73603C163.243 2.70186 163.128 2.62132 162.996 2.4822H162.994ZM178.72 4.93757C178.561 4.8497 178.456 4.7594 178.419 4.78136C178.332 4.83262 178.277 4.93513 178.207 5.01567C178.275 5.06693 178.354 5.16944 178.404 5.15723C178.496 5.13527 178.573 5.04496 178.717 4.94001L178.72 4.93757ZM150.186 3.76602C150.094 3.88562 150.007 3.99545 149.92 4.10772C149.975 4.12969 150.057 4.18583 150.082 4.16874C150.164 4.10528 150.236 4.0223 150.286 3.93443C150.301 3.90758 150.231 3.8368 150.186 3.76602ZM154.513 3.2974C154.562 3.4292 154.582 3.48534 154.602 3.54147C154.717 3.45605 154.831 3.36818 154.946 3.28276C154.896 3.24859 154.839 3.18269 154.794 3.19001C154.694 3.20709 154.602 3.26079 154.513 3.2974ZM79.6473 3.27543C79.5528 3.17292 79.4682 3.08018 79.3811 2.98743C79.3487 3.07041 79.2666 3.19733 79.294 3.22418C79.3662 3.29984 79.4831 3.33401 79.5851 3.37306C79.5926 3.3755 79.6349 3.29496 79.6473 3.27543ZM192.849 5.33297C192.717 5.38666 192.662 5.40863 192.605 5.43304C192.697 5.54043 192.791 5.64782 192.883 5.75521C192.916 5.70396 192.98 5.64538 192.97 5.60389C192.948 5.5087 192.891 5.42083 192.849 5.33297ZM125.643 3.849C125.589 3.71965 125.566 3.66595 125.541 3.61225C125.432 3.70256 125.322 3.79531 125.213 3.88562C125.265 3.91735 125.325 3.9808 125.367 3.97104C125.464 3.94907 125.554 3.89294 125.643 3.85145V3.849ZM74.6193 4.08087C74.7412 4.17118 74.8531 4.25661 74.9676 4.34203C74.99 4.28834 75.0472 4.20535 75.0298 4.18338C74.9651 4.10284 74.8805 4.03206 74.7909 3.98324C74.7636 3.9686 74.6914 4.03694 74.6193 4.08087ZM134.878 2.61156C134.958 2.66769 135.035 2.73847 135.127 2.77753C135.164 2.79461 135.234 2.73847 135.289 2.71651C135.197 2.60912 135.102 2.50172 135.01 2.39433C134.978 2.44559 134.948 2.49684 134.878 2.61156ZM101.984 2.79217C101.969 2.89956 101.944 2.98987 101.949 3.07529C101.949 3.10214 102.031 3.12655 102.076 3.15096C102.098 3.06553 102.133 2.97767 102.138 2.89224C102.138 2.86783 102.058 2.83854 101.984 2.79461V2.79217ZM124.964 3.58785C124.889 3.63422 124.807 3.66351 124.81 3.68548C124.815 3.77334 124.85 3.85877 124.872 3.94419C124.917 3.91979 124.996 3.89782 124.999 3.86853C125.004 3.78066 124.979 3.6928 124.964 3.58541V3.58785ZM148.885 2.4285C148.932 2.50172 148.96 2.58227 148.985 2.57983C149.074 2.57495 149.161 2.54078 149.248 2.51881C149.223 2.47488 149.199 2.39677 149.171 2.39433C149.082 2.38945 148.992 2.41386 148.883 2.4285H148.885ZM152.729 4.01742C152.776 4.09064 152.806 4.17118 152.828 4.16874C152.918 4.16386 153.005 4.12969 153.092 4.10772C153.067 4.06379 153.042 3.98569 153.015 3.98324C152.925 3.97836 152.836 4.00277 152.726 4.01742H152.729ZM154.162 3.76114C154.095 3.79531 154.015 3.8368 153.936 3.87585C153.988 3.91002 154.043 3.97348 154.087 3.9686C154.174 3.95884 154.256 3.91002 154.339 3.87585C154.286 3.84168 154.237 3.80995 154.162 3.76114ZM157.951 3.66107C158.031 3.71232 158.085 3.77578 158.133 3.7709C158.22 3.76114 158.302 3.71232 158.384 3.67815C158.332 3.64398 158.282 3.58297 158.23 3.58541C158.143 3.58541 158.058 3.62934 157.951 3.66107ZM161.514 3.53903C161.359 3.60249 161.305 3.62446 161.247 3.64642C161.305 3.69036 161.357 3.75382 161.424 3.7709C161.471 3.78311 161.534 3.73185 161.588 3.70988C161.558 3.6391 161.526 3.56832 161.514 3.53903ZM161.78 3.87585C161.81 3.88806 161.882 3.92467 161.956 3.93687C161.971 3.93687 162.029 3.82948 162.016 3.78311C161.999 3.71965 161.934 3.66839 161.889 3.60981C161.867 3.66351 161.842 3.71965 161.777 3.87341L161.78 3.87585ZM169.756 3.98324C169.741 4.09064 169.716 4.18094 169.721 4.26637C169.721 4.29322 169.803 4.31762 169.848 4.34203C169.87 4.25661 169.905 4.16874 169.91 4.08331C169.91 4.05891 169.831 4.02962 169.756 3.98569V3.98324ZM143.22 2.4285C143.268 2.50172 143.295 2.58227 143.32 2.57983C143.409 2.57495 143.496 2.54078 143.583 2.51881C143.559 2.47488 143.534 2.39677 143.506 2.39433C143.417 2.38945 143.327 2.41386 143.218 2.4285H143.22ZM187.41 4.73011C187.256 4.79357 187.201 4.81553 187.144 4.83994C187.201 4.88387 187.253 4.94733 187.32 4.96442C187.368 4.97662 187.43 4.92536 187.485 4.9034C187.455 4.83262 187.422 4.76184 187.41 4.73255V4.73011ZM189.497 4.97662C189.423 5.02299 189.341 5.04984 189.343 5.07425C189.348 5.16212 189.383 5.24754 189.405 5.33297C189.45 5.30856 189.53 5.28659 189.532 5.2573C189.537 5.16944 189.512 5.08157 189.497 4.97418V4.97662ZM69.2703 2.38701C69.2479 2.40898 69.2031 2.43583 69.2081 2.45291C69.2181 2.49928 69.2479 2.54322 69.2703 2.58715C69.2927 2.56518 69.3375 2.53834 69.3325 2.52125C69.3226 2.47488 69.2927 2.43094 69.2703 2.38701ZM71.8702 4.20291C71.8428 4.22976 71.8204 4.25172 71.798 4.27369C71.8428 4.29566 71.8851 4.32495 71.9349 4.33471C71.9523 4.33959 71.9796 4.29566 72.002 4.27369C71.9572 4.24928 71.9149 4.22732 71.8727 4.20291H71.8702ZM176.361 4.64224C176.334 4.61539 176.312 4.59343 176.289 4.57146C176.267 4.61539 176.237 4.65689 176.227 4.7057C176.225 4.72278 176.267 4.74963 176.289 4.7716C176.314 4.72767 176.339 4.68617 176.361 4.64468V4.64224ZM127.258 2.71407C127.285 2.74092 127.308 2.76288 127.33 2.78485C127.352 2.74092 127.382 2.69942 127.392 2.65061C127.395 2.63352 127.352 2.60668 127.33 2.58471C127.305 2.62864 127.28 2.67013 127.258 2.71163V2.71407ZM125.136 4.20291C125.093 4.22488 125.049 4.24928 125.006 4.27369C125.029 4.29566 125.056 4.33959 125.074 4.33471C125.121 4.32495 125.166 4.29566 125.21 4.27369C125.188 4.25172 125.166 4.22976 125.138 4.20291H125.136ZM167.156 3.40967C167.129 3.43652 167.106 3.45849 167.084 3.48046C167.129 3.50242 167.171 3.53171 167.221 3.54147C167.238 3.54636 167.266 3.50242 167.288 3.48046C167.243 3.45605 167.201 3.43164 167.159 3.40967H167.156ZM168.427 3.80507C168.385 3.82704 168.34 3.85145 168.298 3.87585C168.32 3.89782 168.348 3.94175 168.365 3.93687C168.413 3.92711 168.457 3.89782 168.502 3.87585C168.48 3.85389 168.457 3.83192 168.43 3.80507H168.427ZM188.194 5.33785C188.236 5.31588 188.281 5.29147 188.323 5.26707C188.301 5.2451 188.273 5.20117 188.256 5.20605C188.209 5.21581 188.164 5.2451 188.119 5.26707C188.141 5.28903 188.164 5.311 188.191 5.33785H188.194ZM164.178 4.40061C164.136 4.42258 164.091 4.44698 164.049 4.47139C164.071 4.49336 164.099 4.53729 164.116 4.53241C164.163 4.52264 164.208 4.49336 164.253 4.47139C164.23 4.44942 164.208 4.42746 164.181 4.40061H164.178ZM149.007 3.40967C148.965 3.43164 148.92 3.45605 148.878 3.48046C148.9 3.50242 148.927 3.54636 148.945 3.54147C148.992 3.53171 149.037 3.50242 149.082 3.48046L149.01 3.40967H149.007ZM171.099 4.44454C171.072 4.41769 171.05 4.39573 171.027 4.37376C171.005 4.41769 170.975 4.45919 170.965 4.508C170.96 4.52509 171.005 4.55193 171.027 4.5739C171.052 4.52997 171.077 4.48847 171.099 4.44698V4.44454ZM144.526 2.58715C144.504 2.60912 144.459 2.63596 144.464 2.65305C144.474 2.69942 144.504 2.74336 144.526 2.78729C144.549 2.76532 144.594 2.73847 144.589 2.72139C144.579 2.67502 144.549 2.63108 144.526 2.58715ZM142.735 4.20291C142.693 4.22488 142.648 4.24928 142.606 4.27369C142.628 4.29566 142.655 4.33959 142.673 4.33471C142.72 4.32495 142.765 4.29566 142.81 4.27369L142.738 4.20291H142.735ZM80.931 3.45117C80.9534 3.49266 80.9783 3.53659 81.0032 3.57808C81.0256 3.55612 81.0704 3.52927 81.0654 3.51218C81.0554 3.46581 81.0256 3.42188 81.0032 3.37794C80.9808 3.39991 80.9584 3.42188 80.931 3.44873V3.45117ZM76.2787 2.71407C76.3061 2.74092 76.3285 2.76288 76.3508 2.78485C76.3732 2.74092 76.4031 2.69942 76.413 2.65061C76.418 2.63352 76.3732 2.60668 76.3508 2.58471C76.326 2.62864 76.3011 2.67013 76.2787 2.71163V2.71407ZM73.4176 3.48046C73.44 3.50242 73.4674 3.54636 73.4848 3.54147C73.5321 3.53171 73.5769 3.50242 73.6216 3.48046C73.5992 3.45849 73.5719 3.41456 73.5545 3.41944C73.5072 3.4292 73.4624 3.45849 73.4176 3.48046ZM197.429 4.9693C197.503 5.42571 197.533 5.46721 197.814 5.26951C198.198 4.99615 198.603 4.93757 199.048 4.9693C199.071 5.02299 199.093 5.07913 199.116 5.13283C199.16 5.07913 199.205 5.02299 199.252 4.9693C199.377 4.94733 199.506 4.93513 199.626 4.89852C199.872 4.82041 199.999 4.89119 199.994 5.13283C199.994 5.20361 199.956 5.27195 199.934 5.34273C200.044 5.311 200.173 5.30124 200.257 5.23778C200.32 5.1914 200.322 5.07181 200.35 4.98394C200.387 5.05716 200.417 5.14015 200.469 5.20361C200.506 5.24998 200.583 5.30368 200.633 5.29391C200.753 5.27439 200.927 5.14991 200.969 5.18896C201.233 5.42815 201.452 5.4428 201.75 5.22313C201.882 5.1255 202.136 5.15235 202.327 5.17676C202.591 5.20849 202.402 5.30856 202.357 5.41351C202.317 5.50626 202.362 5.63562 202.37 5.74789C202.484 5.71372 202.633 5.71372 202.708 5.6405C203.156 5.21093 203.248 5.14259 203.504 5.17432C203.564 5.18164 203.619 5.22069 203.676 5.2451C203.646 5.29147 203.626 5.34761 203.586 5.38422C203.367 5.58192 203.143 5.7723 202.927 5.96755C202.711 6.16281 202.502 6.36295 202.288 6.56309C202.208 6.49719 202.131 6.38248 202.044 6.37271C201.79 6.34831 201.531 6.36295 201.275 6.36295C201.32 6.24092 201.365 6.11888 201.407 5.99684C201.273 6.04078 201.128 6.07007 201.009 6.13841C200.942 6.17746 200.914 6.28485 200.87 6.36295C200.835 6.36295 200.775 6.35563 200.772 6.36295C200.72 6.54112 200.723 6.83157 200.616 6.8755C200.387 6.97069 200.103 6.94873 199.842 6.95361C199.72 6.95361 199.596 6.90479 199.471 6.87794C199.611 6.83889 199.747 6.7974 199.887 6.76079C199.919 6.75347 199.956 6.76811 199.986 6.75835C200.076 6.7315 200.163 6.69977 200.253 6.66804C200.163 6.57529 200.076 6.40444 199.984 6.402C199.541 6.3898 199.056 6.17258 198.685 6.61191C198.643 6.66072 198.531 6.70709 198.476 6.68757C197.916 6.48743 197.899 6.46302 197.506 6.7974C197.185 7.06832 197.225 6.84377 197.23 6.64364C197.235 6.25312 197.09 6.38004 196.931 6.55577C196.762 6.74126 196.638 6.83889 196.359 6.63143C196.128 6.45814 195.772 6.4435 195.468 6.36295C195.317 6.3239 195.108 6.34343 195.018 6.25068C194.899 6.12864 194.836 5.92606 194.809 5.75033C194.772 5.50138 194.782 5.27195 194.617 5.02788C194.443 4.7716 194.632 4.58366 194.991 4.5739C195.16 4.56902 195.326 4.56658 195.496 4.5739C195.657 4.58366 195.817 4.61051 195.976 4.63248C195.899 4.92781 195.647 4.68373 195.513 4.77648C195.404 4.8497 195.319 4.95954 195.225 5.05228C195.409 5.19629 195.406 5.33785 195.215 5.47209C195.341 5.56972 195.461 5.67955 195.603 5.75033C195.628 5.76253 195.777 5.61365 195.807 5.5209C195.884 5.27683 196.075 5.39642 196.264 5.36714C196.279 5.36714 196.25 5.36714 196.22 5.36714C196.24 5.41839 196.25 5.47697 196.282 5.51846C196.292 5.53066 196.361 5.49894 196.404 5.48673C196.371 5.44768 196.342 5.40863 196.264 5.36958C196.187 5.15967 196.232 4.97418 196.434 4.86923C196.478 4.84482 196.58 4.86923 196.62 4.90584C196.926 5.20605 196.924 5.20849 197.434 4.97174L197.429 4.9693ZM198.309 5.79182C198.282 5.81867 198.26 5.84064 198.237 5.8626C198.282 5.88457 198.324 5.91386 198.374 5.92362C198.392 5.9285 198.419 5.88457 198.441 5.8626C198.397 5.8382 198.354 5.81623 198.312 5.79182H198.309ZM208.555 5.96023C208.985 6.09447 208.617 6.48499 208.798 6.68513C208.9 6.7974 209.05 6.93164 209.184 6.9414C209.682 6.97069 210.229 7.07076 210.669 6.91212C211.02 6.7852 211.237 6.70221 211.525 6.94629C211.56 6.97557 211.694 6.89503 211.781 6.86574C211.455 6.53624 211.871 6.36051 211.938 6.11156C211.948 6.07007 211.918 6.01881 211.906 5.97244C211.64 6.08227 211.485 5.51114 211.132 5.87725C210.983 6.03345 210.525 6.14817 210.416 6.05298C210.057 5.73813 209.903 6.3117 209.624 6.16037C209.545 6.11644 209.376 6.08715 209.378 6.06274C209.41 5.66735 209.122 5.77474 208.818 5.75521C208.766 5.79426 208.662 5.87725 208.555 5.96023ZM201.516 6.54601C201.429 6.53624 201.355 6.42397 201.273 6.35563H200.867C200.889 6.87062 200.887 6.86818 201.34 6.78764C201.427 6.77299 201.554 6.74859 201.603 6.79496C201.949 7.10005 202.357 6.89259 202.73 6.94873C202.778 6.95605 202.835 6.88771 202.887 6.85598C202.835 6.82181 202.79 6.77788 202.733 6.75835C202.576 6.70465 202.315 6.88283 202.283 6.55821C202.026 6.55821 201.768 6.57529 201.514 6.54845L201.516 6.54601ZM205.176 6.34343C205.271 6.29217 205.293 6.07983 205.308 5.93582C205.313 5.88457 205.196 5.82111 205.134 5.76253C205.062 5.84308 204.975 5.91386 204.917 6.00417C204.78 6.21895 204.669 6.47278 204.365 6.17014C204.353 6.15793 204.196 6.28729 204.106 6.35075C204.171 6.43373 204.233 6.51916 204.32 6.63387C204.649 6.52892 204.932 6.47278 205.179 6.34343H205.176ZM219.78 6.16281C219.628 6.22139 219.347 6.00905 219.342 6.29461C219.342 6.38004 219.713 6.55821 219.892 6.5338C220.123 6.50207 220.325 6.28973 220.601 6.34587C220.618 6.35075 220.671 6.28973 220.666 6.28241C220.641 6.23603 220.606 6.16525 220.571 6.16281C220.375 6.15061 220.175 6.15793 219.976 6.15793C219.912 6.15793 219.837 6.13841 219.78 6.16037V6.16281ZM204.079 6.82669C203.987 6.73638 203.875 6.55821 203.805 6.57285C203.636 6.60947 203.487 6.73394 203.328 6.82181C203.444 6.87794 203.561 6.93408 203.693 6.99754C203.835 6.93408 203.957 6.88039 204.079 6.82669ZM218.675 6.15549C218.777 6.28485 218.897 6.402 219.009 6.5216C219.031 6.4679 219.086 6.39224 219.068 6.36051C218.984 6.22139 218.879 6.09203 218.76 5.93338C218.713 6.05054 218.658 6.13108 218.675 6.15549ZM223.897 6.49475C223.845 6.55333 223.81 6.62655 223.768 6.69489C223.858 6.71442 223.992 6.77787 224.024 6.7437C224.094 6.67048 224.114 6.54845 224.231 6.24824C224.004 6.41177 223.94 6.4435 223.895 6.49475H223.897ZM208.46 5.96023C208.425 6.03834 208.361 6.11888 208.361 6.19698C208.361 6.3117 208.41 6.42641 208.438 6.53868C208.49 6.44838 208.542 6.35563 208.604 6.24824C208.547 6.13596 208.502 6.0481 208.46 5.96023ZM193.99 6.35807C194.078 6.47767 194.165 6.59482 194.252 6.71442C194.299 6.66804 194.394 6.60947 194.386 6.57774C194.361 6.48743 194.297 6.40444 194.269 6.35807H193.99ZM213.013 6.00905C213.005 6.05054 213.073 6.10912 213.105 6.15793C213.194 6.04566 213.284 5.93583 213.371 5.82355C213.314 5.80159 213.259 5.78206 213.125 5.73324C213.085 5.82355 213.03 5.91142 213.013 6.00905ZM221.907 6.45082C221.954 6.48743 222.002 6.55333 222.046 6.55089C222.131 6.54601 222.213 6.50207 222.295 6.47523C222.235 6.42885 222.173 6.38248 222.091 6.31902C222.021 6.37027 221.964 6.40933 221.91 6.45082H221.907ZM189.04 6.16525C189.012 6.16525 188.987 6.2458 188.962 6.28973C189.05 6.3117 189.139 6.34587 189.226 6.35075C189.251 6.35075 189.281 6.27264 189.326 6.19942C189.216 6.18478 189.124 6.16037 189.037 6.16525H189.04ZM187.629 3.97592C187.659 3.94663 187.689 3.91735 187.719 3.88806C187.679 3.85633 187.641 3.8246 187.597 3.80019C187.589 3.79531 187.557 3.83924 187.532 3.86121C187.564 3.90026 187.597 3.93687 187.626 3.97592H187.629ZM120.869 1.79391C120.899 1.76463 120.929 1.73534 120.959 1.70605C120.919 1.67432 120.882 1.64015 120.837 1.61818C120.829 1.6133 120.797 1.65723 120.772 1.6792C120.804 1.71825 120.837 1.75486 120.867 1.79391H120.869ZM197.429 4.87899C197.459 4.90828 197.488 4.93757 197.518 4.96686C197.551 4.92781 197.583 4.89119 197.608 4.84726C197.613 4.83994 197.568 4.80821 197.546 4.7838C197.506 4.81553 197.469 4.84726 197.429 4.87655V4.87899ZM199.25 4.9693C199.228 4.9156 199.205 4.85947 199.183 4.80577L199.046 4.9693H199.247H199.25ZM106.392 4.17362C106.412 4.22488 106.422 4.28345 106.454 4.32495C106.464 4.33715 106.534 4.30542 106.576 4.29322C106.544 4.25417 106.514 4.21511 106.482 4.17606C106.452 4.17606 106.422 4.17606 106.392 4.17606V4.17362ZM204.004 5.76253C204.027 5.74057 204.071 5.71372 204.066 5.69663C204.056 5.65026 204.027 5.60633 204.004 5.56239C203.982 5.58436 203.959 5.60633 203.932 5.63317C203.954 5.67467 203.979 5.7186 204.004 5.76009V5.76253ZM75.0348 1.39608C74.98 1.41804 74.9228 1.44001 74.8681 1.46198L75.0348 1.59622V1.39852V1.39608ZM218.063 6.0603C218.018 6.03834 217.976 6.00905 217.926 5.99928C217.909 5.9944 217.882 6.03834 217.859 6.0603C217.904 6.08471 217.946 6.10668 217.989 6.13108C218.016 6.10424 218.038 6.08227 218.061 6.0603H218.063ZM218.267 5.8626C218.312 5.88457 218.354 5.91386 218.404 5.92362C218.422 5.9285 218.449 5.88457 218.471 5.8626C218.427 5.8382 218.384 5.81623 218.342 5.79182C218.315 5.81867 218.292 5.84064 218.27 5.8626H218.267ZM74.6317 1.09831C74.6765 1.12027 74.7188 1.14956 74.7685 1.15933C74.786 1.16421 74.8133 1.12027 74.8357 1.09831C74.7909 1.0739 74.7486 1.05193 74.7064 1.02753C74.679 1.05437 74.6566 1.07634 74.6342 1.09831H74.6317ZM221.3 6.16037C221.248 6.1799 221.188 6.18966 221.146 6.22139C221.133 6.23115 221.166 6.29949 221.178 6.34099C221.218 6.30926 221.258 6.27997 221.298 6.24824V6.16037H221.3ZM221.3 6.07007C221.33 6.09935 221.36 6.12864 221.39 6.15793C221.422 6.11888 221.457 6.08227 221.479 6.03834C221.484 6.03101 221.439 5.99928 221.417 5.97488C221.377 6.00661 221.34 6.03834 221.3 6.06762V6.07007ZM221.818 6.35807C221.847 6.32878 221.877 6.29949 221.907 6.2702C221.867 6.23848 221.83 6.2043 221.785 6.18234C221.778 6.17746 221.745 6.22139 221.72 6.24336C221.753 6.28241 221.785 6.31902 221.815 6.35807H221.818ZM229.796 6.65584C229.819 6.67781 229.846 6.72174 229.863 6.71686C229.911 6.70709 229.955 6.67781 230 6.65584C229.978 6.63387 229.955 6.61191 229.928 6.58506C229.886 6.60702 229.841 6.63143 229.799 6.65584H229.796Z" fill="#5B7100"/>
</g>
<defs>
<clipPath id="clip0_349_237">
<rect width="230" height="7" fill="white"/>
</clipPath>
</defs>
</svg>
