<svg width="25" height="25" viewBox="0 0 25 25" fill="none" xmlns="http://www.w3.org/2000/svg">
<path opacity="0.3" d="M12.5 16.0417L8.58335 18.4063L9.62502 13.9479L6.16669 10.9479L10.7292 10.5521L12.5 6.35419L14.2813 10.5625L18.8438 10.9584L15.3854 13.9584L16.4271 18.4167L12.5 16.0417Z" fill="#FFAF00"/>
<path d="M22.9166 9.62498L15.4271 8.97915L12.5 2.08331L9.5729 8.98956L2.08331 9.62498L7.77081 14.5521L6.06248 21.875L12.5 17.9896L18.9375 21.875L17.2396 14.5521L22.9166 9.62498ZM12.5 16.0416L8.58331 18.4062L9.62498 13.9479L6.16665 10.9479L10.7291 10.5521L12.5 6.35415L14.2812 10.5625L18.8437 10.9583L15.3854 13.9583L16.4271 18.4166L12.5 16.0416Z" fill="#FFB20A"/>
</svg>
