<svg width="241" height="241" viewBox="0 0 241 241" fill="none" xmlns="http://www.w3.org/2000/svg">
<path d="M196.66 84.0904C195.797 96.2839 190.078 112.864 175.104 134.945C175.973 161.636 170.547 189.85 165.99 205.257C164.398 210.642 160.999 218.821 154.413 218.821C144.724 218.821 144.156 190.184 138.734 169.96C136.562 161.86 125.044 161.86 122.872 169.96C117.449 190.185 116.88 218.821 107.192 218.821C100.605 218.821 97.2074 210.643 95.6135 205.257C91.0564 189.85 85.6306 161.636 86.4993 134.945C71.5255 112.862 65.8072 96.2839 64.944 84.0904C64.0797 71.8979 69.9995 58.3998 81.4744 54.1921C92.5922 50.117 103.264 51.6978 116.61 58.1741C127.677 63.5451 136.629 72.6604 151.279 76.2414C151.279 76.2414 139.957 70.6349 134.46 64.0523C138.63 61.9359 141.938 59.7614 144.995 58.1741C158.161 51.3384 169.013 50.1159 180.13 54.1921C191.607 58.3998 197.527 71.8979 196.661 84.0904H196.66Z" fill="#268E92"/>
<path d="M76.4069 47.3993C62.4431 49.8652 60.4439 51.8633 57.978 65.827C55.5122 51.8633 53.5141 49.8641 39.5492 47.3993C53.513 44.9334 55.5122 42.9353 57.978 28.9705C60.4439 42.9342 62.442 44.9334 76.4069 47.3993Z" fill="#268E92"/>
<path d="M94.9803 33.4069C86.4719 34.9087 85.2537 36.1269 83.7519 44.6353C82.25 36.1269 81.0319 34.9087 72.5235 33.4069C81.0319 31.905 82.25 30.6869 83.7519 22.1785C85.2537 30.6869 86.4719 31.905 94.9803 33.4069Z" fill="#268E92"/>
<path d="M53.9007 73.2815C49.1278 74.1239 48.4443 74.8075 47.6019 79.5804C46.7595 74.8075 46.0759 74.1239 41.303 73.2815C46.0759 72.4391 46.7595 71.7556 47.6019 66.9827C48.4443 71.7556 49.1278 72.4391 53.9007 73.2815Z" fill="#268E92"/>
</svg>
