<svg width="1185" height="1185" viewBox="0 0 1185 1185" fill="none" xmlns="http://www.w3.org/2000/svg">
<path d="M966.981 413.473C962.737 473.429 934.615 554.952 860.989 663.525C865.26 794.769 838.581 933.495 816.174 1009.25C808.348 1035.73 791.634 1075.95 759.251 1075.95C711.609 1075.95 708.818 935.137 682.156 835.694C671.475 795.867 614.843 795.867 604.161 835.694C577.499 935.143 574.698 1075.95 527.066 1075.95C494.678 1075.95 477.97 1035.73 470.133 1009.25C447.725 933.495 421.047 794.769 425.318 663.525C351.692 554.946 323.575 473.429 319.331 413.473C315.081 353.523 344.189 287.152 400.611 266.463C455.277 246.426 507.751 254.199 573.373 286.043C627.791 312.452 671.809 357.272 743.841 374.88C743.841 374.88 688.172 347.313 661.144 314.946C681.644 304.54 697.911 293.848 712.944 286.043C777.678 252.432 831.04 246.421 885.701 266.463C942.134 287.152 971.242 353.523 966.987 413.473H966.981Z" fill="#FFFAD4" fill-opacity="0.2"/>
<path d="M375.693 233.063C307.033 245.187 297.203 255.012 285.079 323.672C272.954 255.012 263.129 245.182 194.464 233.063C263.124 220.938 272.954 211.113 285.079 142.448C297.203 211.108 307.028 220.938 375.693 233.063Z" fill="#FFFAD4" fill-opacity="0.2"/>
<path d="M467.019 164.263C425.183 171.647 419.194 177.637 411.809 219.473C404.424 177.637 398.435 171.647 356.599 164.263C398.435 156.878 404.424 150.888 411.809 109.052C419.194 150.888 425.183 156.878 467.019 164.263Z" fill="#FFFAD4" fill-opacity="0.2"/>
<path d="M265.031 360.326C241.562 364.468 238.201 367.829 234.059 391.298C229.917 367.829 226.556 364.468 203.087 360.326C226.556 356.184 229.917 352.823 234.059 329.355C238.201 352.823 241.562 356.184 265.031 360.326Z" fill="#FFFAD4" fill-opacity="0.2"/>
</svg>
