<svg width="110" height="60" viewBox="0 0 110 60" fill="none" xmlns="http://www.w3.org/2000/svg">
<path d="M76.959 14.5H77.089C78.389 15.02 80.729 15.41 82.939 15.41C84.889 15.41 86.774 15.15 87.944 14.5C87.619 15.215 88.529 17.945 92.429 28.475L94.119 33.025C95.679 37.185 96.849 40.11 97.759 42.19L103.089 24.315C104.584 19.245 103.089 16.84 100.359 15.15V14.5C102.179 15.15 103.609 15.475 105.104 15.475C106.534 15.475 107.964 15.15 109.784 14.5V15.15C106.859 16.97 105.234 19.375 103.674 24.64L96.004 50.25C93.859 57.335 89.764 59.935 86.189 59.935C82.809 59.935 80.014 57.595 80.014 54.54C80.014 51.68 82.289 49.99 84.889 49.99C86.189 49.99 87.554 50.445 88.724 51.355C85.734 53.63 87.294 57.075 89.764 57.075C91.584 57.075 93.859 55.32 95.354 50.25L96.329 46.935C95.094 46.545 93.859 46.415 92.754 46.415C91.454 46.415 90.284 46.61 89.699 47H89.569C89.894 46.285 88.984 43.555 85.084 33.025L83.394 28.475C79.494 17.945 77.804 15.215 76.959 14.5Z" fill="#3C7B9E"/>
<path d="M47.8613 39.59C47.8613 28.475 66.5813 31.335 66.5813 21.78C66.5813 16.645 64.0463 14.5 61.4463 14.5C58.5863 14.5 55.5963 17.1 55.5963 21C55.5963 23.275 56.9613 25.03 59.3013 24.77C59.3013 27.955 57.0263 29.45 54.5563 29.45C51.5663 29.45 48.3813 27.37 48.3813 23.47C48.3813 16.645 56.1813 13.85 61.8363 13.85C73.0163 13.85 74.9663 21.13 74.9663 27.11V38.745C74.9663 43.035 75.3563 45.83 77.0463 45.83C77.5013 45.83 78.0213 45.7 78.6063 45.31V45.635C77.3713 47.065 75.5513 47.65 73.6663 47.65C69.4413 47.65 67.6863 45.375 67.0363 42.385C64.1763 46.025 60.4063 47.65 57.0263 47.65C52.3463 47.65 47.8613 44.66 47.8613 39.59ZM56.1813 37.38C56.1813 41.41 58.9763 43.75 62.0963 43.75C63.7863 43.75 65.4763 43.1 66.9063 41.67C66.5163 39.785 66.5163 37.705 66.5163 35.69L66.5813 24.64C65.6713 27.955 56.1813 30.945 56.1813 37.38Z" fill="#3C7B9E"/>
<path d="M34.5058 11.51C34.5058 6.50498 33.6608 5.46497 33.5308 4.94498C34.6358 4.94498 38.4708 4.22997 42.3058 0.849976H42.9558V33.025C42.9558 43.49 43.3458 46.285 43.9308 47C42.5008 46.35 40.6158 46.09 38.8608 46.09C36.7808 46.09 34.7658 46.48 33.6608 47H33.5308C34.1158 46.285 34.5058 43.49 34.5058 33.025V11.51Z" fill="#3C7B9E"/>
<path d="M0 37.25C0 33.285 3.12 31.01 6.825 31.01C9.685 31.01 12.805 32.895 12.805 36.34C9.88 36.08 7.865 37.835 7.865 40.76C7.865 44.465 11.57 46.675 15.015 46.675C18.33 46.675 21.71 44.855 21.71 40.955C21.71 29.775 0.65 27.37 0.65 14.955C0.65 8.25997 7.41 5.26997 14.17 5.26997C18.85 5.26997 27.625 7.34998 27.625 13.525C27.625 16.45 25.35 18.92 21.19 18.92C18.395 18.92 15.34 16.905 15.34 13.85C17.42 13.85 20.15 12.94 20.15 10.405C20.15 7.73997 17.42 6.30997 14.625 6.30997C11.505 6.30997 8.71 8.06497 8.71 11.51C8.71 19.895 29.64 25.03 29.64 37.315C29.64 44.205 22.295 47.65 15.015 47.65C8.84 47.65 0 44.79 0 37.25Z" fill="#3C7B9E"/>
</svg>
